<svg width="24" height="24" viewBox="0 0 24 24" fill="none" xmlns="http://www.w3.org/2000/svg">
<path d="M16 17H22M19 14V20M2 12C1.99953 12.1913 2.05392 12.3786 2.15672 12.5399C2.25952 12.7012 2.40642 12.8297 2.58 12.91L11.18 16.82C11.4392 16.9373 11.7205 16.998 12.005 16.998M2 17C1.99953 17.1913 2.05392 17.3786 2.15672 17.5399C2.25952 17.7012 2.40642 17.8297 2.58 17.91L11.18 21.82C11.4392 21.9374 11.7205 21.9981 12.005 21.9981C12.2895 21.9981 12.5708 21.9374 12.83 21.82L14.946 20.858M12.83 2.17999C12.5694 2.06114 12.2864 1.99963 12 1.99963C11.7136 1.99963 11.4306 2.06114 11.17 2.17999L2.6 6.07999C2.42255 6.15823 2.27168 6.28639 2.16577 6.44885C2.05985 6.61131 2.00346 6.80106 2.00346 6.99499C2.00346 7.18893 2.05985 7.37868 2.16577 7.54113C2.27168 7.70359 2.42255 7.83175 2.6 7.90999L11.18 11.82C11.4406 11.9387 11.7236 12.0001 12.01 12C12.2964 12.0001 12.5794 11.9387 12.84 11.82L21.42 7.91999C21.5977 7.84188 21.7489 7.71372 21.855 7.55115C21.9612 7.38859 22.0177 7.19864 22.0177 7.00449C22.0177 6.81034 21.9612 6.6204 21.855 6.45783C21.7489 6.29526 21.5977 6.1671 21.42 6.08899L12.83 2.17999Z" stroke="#6A6969" stroke-width="2" stroke-linecap="round" stroke-linejoin="round"/>
</svg>
